<?xml version="1.0" encoding="utf-8"?>
<!-- Generator: Adobe Illustrator 18.0.0, SVG Export Plug-In . SVG Version: 6.00 Build 0)  -->
<!DOCTYPE svg PUBLIC "-//W3C//DTD SVG 1.1//EN" "http://www.w3.org/Graphics/SVG/1.1/DTD/svg11.dtd">
<svg version="1.1" id="Layer_1" xmlns="http://www.w3.org/2000/svg" xmlns:xlink="http://www.w3.org/1999/xlink" x="0px" y="0px"
	 viewBox="0 0 864 432" enable-background="new 0 0 864 432" xml:space="preserve">
<path fill="#FFFFFF" d="M105.3,166.5h36.9L92.7,300.6H49.5L1.8,166.5h41.4l29.7,97.2C72.9,263.7,105.3,166.5,105.3,166.5z
	 M230.4,208.8c-0.9-12.6-9.9-18.9-26.1-18.9c-21.6,0-26.1,25.2-26.1,45.9c0,19.8,4.5,42.3,26.1,42.3c15.3,0,25.2-7.2,26.1-19.8H270
	c0.9,34.2-32.4,45.9-63.9,45.9c-42.3,0-63.9-25.2-63.9-70.2s22.5-69.3,63.9-70.2c33.3,0,64.8,11.7,63.9,45.9
	C270,209.7,230.4,208.8,230.4,208.8z M406.8,166.5V252c0,36.9-29.7,53.1-63.9,53.1S279,290.7,279,252v-85.5h36.9v83.7
	c0.9,18,9,27.9,27,27.9s27-9.9,27-27.9v-83.7C369.9,166.5,406.8,166.5,406.8,166.5z"/>
<path fill="#FFFFFF" d="M426.6,204.3c0-16.2,7.2-27,18.9-33.3s25.2-8.1,39.6-8.1c27,0,56.7,9.9,56.7,50.4v73.8
	c0,6.3,0.9,9.9,1.8,14.4h-36c-0.9-6.3-0.9-12.6-0.9-18h-0.9c-9,15.3-22.5,21.6-41.4,21.6c-25.2,0-43.2-14.4-43.2-40.5
	c0-9,4.5-32.4,28.8-42.3c15.3-7.2,36-7.2,53.1-7.2v-12.6c0-5.4-4.5-16.2-18.9-16.2c-13.5,0-18.9,13.5-18,19.8h-39.6L426.6,204.3
	L426.6,204.3z M459,259.2c0,11.7,8.1,19.8,19.8,19.8c21.6,0,22.5-25.2,22.5-40.5C486.9,237.6,459,237.6,459,259.2z M592.2,167.4
	l0.9,25.2h0.9c8.1-20.7,26.1-27,45.9-26.1v35.1h-18c-6.3,0.9-15.3,4.5-19.8,9.9c-4.5,7.2-5.4,14.4-5.4,23.4v66.6H558v-108
	c0-5.4-0.9-16.2-0.9-27C557.1,166.5,592.2,167.4,592.2,167.4z M666,167.4v-27l40.5-14.4v41.4h29.7v27h-29.7v62.1
	c0,18,2.7,22.5,16.2,22.5l12.6-0.9v23.4c-4.5,1.8-26.1,4.5-30.6,4.5c-30.6,0-38.7-16.2-38.7-45.9v-65.7h-27v-27
	C639,167.4,666,167.4,666,167.4z M819.9,202.5c0-8.1-8.1-12.6-18-12.6c-11.7,0-16.2,2.7-16.2,12.6c0,20.7,76.5,9,76.5,59.4
	c0,28.8-36,44.1-61.2,44.1c-30.6,0-59.4-12.6-59.4-43.2h36.9c0.9,9.9,9.9,16.2,21.6,16.2c11.7,0,19.8-4.5,19.8-14.4
	c0-9.9-19.8-15.3-27-18c-26.1-6.3-49.5-11.7-49.5-43.2c0-27.9,34.2-40.5,57.6-40.5c27.9,0,53.1,9.9,54,39.6H819.9L819.9,202.5z"/>
</svg>
