<?xml version="1.0" encoding="utf-8"?>
<!-- Generator: Adobe Illustrator 18.0.0, SVG Export Plug-In . SVG Version: 6.00 Build 0)  -->
<!DOCTYPE svg PUBLIC "-//W3C//DTD SVG 1.1//EN" "http://www.w3.org/Graphics/SVG/1.1/DTD/svg11.dtd">
<svg version="1.1" id="Layer_1" xmlns="http://www.w3.org/2000/svg" xmlns:xlink="http://www.w3.org/1999/xlink" x="0px" y="0px"
	 viewBox="0 0 349 77.6" enable-background="new 0 0 349 77.6" xml:space="preserve">
<g>
	<g>
		<path fill="#FEBE10" d="M51,15.5h14.3l-18.9,52H29.2l-18.4-52h15.9l11.7,37.7h0.1L51,15.5z"/>
		<path fill="#FEBE10" d="M99.1,31.8c-0.4-4.7-3.9-7.3-9.8-7.3c-8.3,0-9.8,9.7-9.8,17.5c0,7.6,1.7,16.5,9.8,16.5
			c6,0,9.5-2.7,9.8-7.6h15.1c0.2,13.1-12.3,17.7-24.9,17.7c-16.2,0-24.9-9.7-24.9-27.1c0-17.4,8.7-26.9,24.9-27
			c12.6,0,25.1,4.3,24.9,17.4H99.1z"/>
		<path fill="#FEBE10" d="M167.2,15.5v32.9c-0.1,14.5-11.7,20.2-24.8,20.2c-13.1,0-24.7-5.7-24.8-20.2V15.5H132v32.2
			c0.2,6.6,3.7,10.8,10.4,10.8c6.8,0,10.2-4.2,10.4-10.8V15.5H167.2z"/>
	</g>
	<g>
		<path fill="#EE3541" d="M174.6,30.4c0.1-6.5,2.9-10.5,7-12.9c4.2-2.5,9.7-3.3,15.2-3.3c10.4,0,22,3.8,22,19.4v28.2
			c0.1,2.6,0.5,4.1,0.7,5.7h-13.9c-0.3-2.4-0.5-4.7-0.5-6.9H205c-3.5,6-8.9,8.4-15.9,8.4c-9.7,0-16.9-5.6-16.9-15.7
			c0-3.6,1.6-12.4,11-16.4c6.2-2.7,14-3,20.2-2.8v-4.8c0-2.2-1.6-6.4-7.1-6.4c-5.4,0-7.1,5-6.9,7.4H174.6z M187.1,51.3
			c0,4.3,3.2,7.4,7.5,7.4c8.5,0,8.9-9.5,8.9-15.6C198.1,43.1,187.1,43,187.1,51.3z"/>
		<path fill="#EE3541" d="M238.6,15.8l0.3,9.4h0.2c3.3-8.1,9.9-10.2,17.6-10v13.7H250c-2.6,0.2-6,1.6-7.5,3.8
			c-1.6,2.9-2,5.8-2.1,9.2v25.6h-15.3L225,26.1c0-2.2-0.3-6.5-0.5-10.3H238.6z"/>
	</g>
	<g>
		<path fill="#EE3541" d="M267.1,15.8V5.6L282.5,0v15.8h11.6v10.3h-11.6v24c0,6.8,1,8.7,6.4,8.7c1.6,0,3.3-0.2,4.9-0.3v9.1
			c-1.8,0.8-10,1.5-12.2,1.5c-12.1,0-14.6-6.3-14.6-17.5V26.1h-10.4V15.8H267.1z"/>
		<path fill="#EE3541" d="M326.5,29.6c-0.2-3.5-3.5-5-7-5c-4.2,0-6.2,1.2-6.2,4.6c0,8.1,29.6,3.5,29.6,22.9c0,11.3-13.8,17-23.4,17
			c-12.1,0-22.6-4.7-22.8-16.6H311c0.3,4,3.9,6.3,8.4,6.3c4.2,0,7.4-1.8,7.4-5.8c0-4.1-7.4-5.9-10.5-6.6
			c-9.9-2.4-19.1-4.5-19.1-16.6c0-10.8,13.1-15.6,22.1-15.6c10.9,0,20.2,3.9,20.9,15.3H326.5z"/>
	</g>
</g>
</svg>
