<?xml version="1.0" encoding="utf-8"?>
<!-- Generator: Adobe Illustrator 18.0.0, SVG Export Plug-In . SVG Version: 6.00 Build 0)  -->
<!DOCTYPE svg PUBLIC "-//W3C//DTD SVG 1.1//EN" "http://www.w3.org/Graphics/SVG/1.1/DTD/svg11.dtd">
<svg version="1.1" id="Layer_1" xmlns="http://www.w3.org/2000/svg" xmlns:xlink="http://www.w3.org/1999/xlink" x="0px" y="0px"
	 viewBox="0 223.5 792 164.2" enable-background="new 0 223.5 792 164.2" xml:space="preserve">
<path fill="#FDBD15" d="M96.5,260.6h33.8L85,383.5H45.4L1.6,260.6h38l27.2,89.1C66.8,349.7,96.5,260.6,96.5,260.6z M211.2,299.4
	c-0.8-11.5-9.1-17.3-23.9-17.3c-19.8,0-23.9,23.1-23.9,42.1c0,18.1,4.1,38.8,23.9,38.8c14,0,23.1-6.6,23.9-18.1h36.3
	c0.8,31.4-29.7,42.1-58.6,42.1c-38.8,0-58.6-23.1-58.6-64.4s20.6-63.5,58.6-64.4c30.5,0,59.4,10.7,58.6,42.1
	C247.5,300.2,211.2,299.4,211.2,299.4z M372.9,260.6V339c0,33.8-27.2,48.7-58.6,48.7s-58.6-13.2-58.6-48.7v-78.4h33.8v76.7
	c0.8,16.5,8.2,25.6,24.8,25.6s24.8-9.1,24.8-25.6v-76.7C339.1,260.6,372.9,260.6,372.9,260.6z"/>
<path fill="#EE3142" d="M391.1,295.3c0-14.9,6.6-24.8,17.3-30.5s23.1-7.4,36.3-7.4c24.8,0,52,9.1,52,46.2v67.6
	c0,5.8,0.8,9.1,1.7,13.2h-33c-0.8-5.8-0.8-11.5-0.8-16.5h-0.8c-8.2,14-20.6,19.8-37.9,19.8c-23.1,0-39.6-13.2-39.6-37.1
	c0-8.2,4.1-29.7,26.4-38.8c14-6.6,33-6.6,48.7-6.6v-11.5c0-5-4.1-14.9-17.3-14.9c-12.4,0-17.3,12.4-16.5,18.1h-36.3L391.1,295.3
	L391.1,295.3z M420.8,345.6c0,10.7,7.4,18.1,18.1,18.1c19.8,0,20.6-23.1,20.6-37.1C446.3,325.8,420.8,325.8,420.8,345.6z
	 M542.9,261.4l0.8,23.1h0.8c7.4-19,23.9-24.8,42.1-23.9v32.2h-16.5c-5.8,0.8-14,4.1-18.2,9.1c-4.1,6.6-4.9,13.2-4.9,21.5v61h-35.5
	v-99c0-5-0.8-14.9-0.8-24.8C510.7,260.6,542.9,261.5,542.9,261.4z M610.5,261.5v-24.8l37.1-13.2v38h27.2v24.8h-27.2v56.9
	c0,16.5,2.5,20.6,14.9,20.6l11.5-0.8v21.5c-4.1,1.6-23.9,4.1-28,4.1c-28.1,0-35.5-14.9-35.5-42.1v-60.2h-24.8v-24.8
	C585.8,261.4,610.5,261.4,610.5,261.5z M751.6,293.6c0-7.4-7.4-11.5-16.5-11.5c-10.7,0-14.9,2.5-14.9,11.5c0,19,70.1,8.2,70.1,54.5
	c0,26.4-33,40.4-56.1,40.4c-28,0-54.5-11.5-54.5-39.6h33.8c0.8,9.1,9.1,14.9,19.8,14.9c10.7,0,18.2-4.1,18.2-13.2
	c0-9.1-18.2-14-24.8-16.5c-23.9-5.8-45.4-10.7-45.4-39.6c0-25.6,31.3-37.1,52.8-37.1c25.6,0,48.7,9.1,49.5,36.3H751.6L751.6,293.6z"
	/>
</svg>
